<mxfile host="65bd71144e">
    <diagram id="hKf6ww-7OZRbxLN4Bpd7" name="ページ1">
        <mxGraphModel dx="730" dy="362" grid="1" gridSize="10" guides="1" tooltips="1" connect="1" arrows="1" fold="1" page="1" pageScale="1" pageWidth="1169" pageHeight="827" math="0" shadow="0">
            <root>
                <mxCell id="0"/>
                <mxCell id="1" parent="0"/>
                <mxCell id="29" value="Usersテーブル" style="swimlane;fontStyle=0;childLayout=stackLayout;horizontal=1;startSize=26;horizontalStack=0;resizeParent=1;resizeParentMax=0;resizeLast=0;collapsible=1;marginBottom=0;align=center;fontSize=14;" parent="1" vertex="1">
                    <mxGeometry x="80" y="40" width="260" height="266" as="geometry"/>
                </mxCell>
                <mxCell id="30" value="nickname(string型, NOT NULL)" style="text;strokeColor=none;fillColor=none;spacingLeft=4;spacingRight=4;overflow=hidden;rotatable=0;points=[[0,0.5],[1,0.5]];portConstraint=eastwest;fontSize=12;" parent="29" vertex="1">
                    <mxGeometry y="26" width="260" height="30" as="geometry"/>
                </mxCell>
                <mxCell id="31" value="email(string型, NOT NULL, Unique)" style="text;strokeColor=none;fillColor=none;spacingLeft=4;spacingRight=4;overflow=hidden;rotatable=0;points=[[0,0.5],[1,0.5]];portConstraint=eastwest;fontSize=12;" parent="29" vertex="1">
                    <mxGeometry y="56" width="260" height="30" as="geometry"/>
                </mxCell>
                <mxCell id="41" value="encrypted_password(string型, NOT NULL)" style="text;strokeColor=none;fillColor=none;spacingLeft=4;spacingRight=4;overflow=hidden;rotatable=0;points=[[0,0.5],[1,0.5]];portConstraint=eastwest;fontSize=12;" parent="29" vertex="1">
                    <mxGeometry y="86" width="260" height="30" as="geometry"/>
                </mxCell>
                <mxCell id="38" value="last_name(string型, NOT NULL)" style="text;strokeColor=none;fillColor=none;spacingLeft=4;spacingRight=4;overflow=hidden;rotatable=0;points=[[0,0.5],[1,0.5]];portConstraint=eastwest;fontSize=12;" parent="29" vertex="1">
                    <mxGeometry y="116" width="260" height="30" as="geometry"/>
                </mxCell>
                <mxCell id="39" value="first_name(string型, NOT NULL)" style="text;strokeColor=none;fillColor=none;spacingLeft=4;spacingRight=4;overflow=hidden;rotatable=0;points=[[0,0.5],[1,0.5]];portConstraint=eastwest;fontSize=12;" parent="29" vertex="1">
                    <mxGeometry y="146" width="260" height="30" as="geometry"/>
                </mxCell>
                <mxCell id="32" value="ruby_last_name(string型, NOT NULL)" style="text;strokeColor=none;fillColor=none;spacingLeft=4;spacingRight=4;overflow=hidden;rotatable=0;points=[[0,0.5],[1,0.5]];portConstraint=eastwest;fontSize=12;" parent="29" vertex="1">
                    <mxGeometry y="176" width="260" height="30" as="geometry"/>
                </mxCell>
                <mxCell id="42" value="ruby_first_name(string型, NOT NULL)" style="text;strokeColor=none;fillColor=none;spacingLeft=4;spacingRight=4;overflow=hidden;rotatable=0;points=[[0,0.5],[1,0.5]];portConstraint=eastwest;fontSize=12;" parent="29" vertex="1">
                    <mxGeometry y="206" width="260" height="30" as="geometry"/>
                </mxCell>
                <mxCell id="34" value="birthday(integer型, NOT NULL)" style="text;strokeColor=none;fillColor=none;spacingLeft=4;spacingRight=4;overflow=hidden;rotatable=0;points=[[0,0.5],[1,0.5]];portConstraint=eastwest;fontSize=12;" parent="29" vertex="1">
                    <mxGeometry y="236" width="260" height="30" as="geometry"/>
                </mxCell>
                <mxCell id="43" value="Itemsテーブル" style="swimlane;fontStyle=0;childLayout=stackLayout;horizontal=1;startSize=26;horizontalStack=0;resizeParent=1;resizeParentMax=0;resizeLast=0;collapsible=1;marginBottom=0;align=center;fontSize=14;" parent="1" vertex="1">
                    <mxGeometry x="600" y="40" width="280" height="296" as="geometry"/>
                </mxCell>
                <mxCell id="44" value="name(string型, NOT NULL)" style="text;strokeColor=none;fillColor=none;spacingLeft=4;spacingRight=4;overflow=hidden;rotatable=0;points=[[0,0.5],[1,0.5]];portConstraint=eastwest;fontSize=12;" parent="43" vertex="1">
                    <mxGeometry y="26" width="280" height="30" as="geometry"/>
                </mxCell>
                <mxCell id="45" value="explain(text型, NOT NULL)" style="text;strokeColor=none;fillColor=none;spacingLeft=4;spacingRight=4;overflow=hidden;rotatable=0;points=[[0,0.5],[1,0.5]];portConstraint=eastwest;fontSize=12;" parent="43" vertex="1">
                    <mxGeometry y="56" width="280" height="30" as="geometry"/>
                </mxCell>
                <mxCell id="90" value="category(string型, NOT NULL)" style="text;strokeColor=none;fillColor=none;spacingLeft=4;spacingRight=4;overflow=hidden;rotatable=0;points=[[0,0.5],[1,0.5]];portConstraint=eastwest;fontSize=12;" parent="43" vertex="1">
                    <mxGeometry y="86" width="280" height="30" as="geometry"/>
                </mxCell>
                <mxCell id="47" value="condition(string型, NOT NULL)" style="text;strokeColor=none;fillColor=none;spacingLeft=4;spacingRight=4;overflow=hidden;rotatable=0;points=[[0,0.5],[1,0.5]];portConstraint=eastwest;fontSize=12;" parent="43" vertex="1">
                    <mxGeometry y="116" width="280" height="30" as="geometry"/>
                </mxCell>
                <mxCell id="46" value="shipping_cost(string型, NOT NULL)" style="text;strokeColor=none;fillColor=none;spacingLeft=4;spacingRight=4;overflow=hidden;rotatable=0;points=[[0,0.5],[1,0.5]];portConstraint=eastwest;fontSize=12;" parent="43" vertex="1">
                    <mxGeometry y="146" width="280" height="30" as="geometry"/>
                </mxCell>
                <mxCell id="48" value="address(string型, NOT NULL)" style="text;strokeColor=none;fillColor=none;spacingLeft=4;spacingRight=4;overflow=hidden;rotatable=0;points=[[0,0.5],[1,0.5]];portConstraint=eastwest;fontSize=12;" parent="43" vertex="1">
                    <mxGeometry y="176" width="280" height="30" as="geometry"/>
                </mxCell>
                <mxCell id="49" value="shipping_days(string型, NOT NULL)" style="text;strokeColor=none;fillColor=none;spacingLeft=4;spacingRight=4;overflow=hidden;rotatable=0;points=[[0,0.5],[1,0.5]];portConstraint=eastwest;fontSize=12;" parent="43" vertex="1">
                    <mxGeometry y="206" width="280" height="30" as="geometry"/>
                </mxCell>
                <mxCell id="50" value="price(integer型, NOT NULL)" style="text;strokeColor=none;fillColor=none;spacingLeft=4;spacingRight=4;overflow=hidden;rotatable=0;points=[[0,0.5],[1,0.5]];portConstraint=eastwest;fontSize=12;" parent="43" vertex="1">
                    <mxGeometry y="236" width="280" height="30" as="geometry"/>
                </mxCell>
                <mxCell id="51" value="user(references型, NOT NULL, 外部キー)" style="text;strokeColor=none;fillColor=none;spacingLeft=4;spacingRight=4;overflow=hidden;rotatable=0;points=[[0,0.5],[1,0.5]];portConstraint=eastwest;fontSize=12;" parent="43" vertex="1">
                    <mxGeometry y="266" width="280" height="30" as="geometry"/>
                </mxCell>
                <mxCell id="53" value="purchasesテーブル" style="swimlane;fontStyle=0;childLayout=stackLayout;horizontal=1;startSize=26;horizontalStack=0;resizeParent=1;resizeParentMax=0;resizeLast=0;collapsible=1;marginBottom=0;align=center;fontSize=14;" parent="1" vertex="1">
                    <mxGeometry x="240" y="480" width="260" height="86" as="geometry"/>
                </mxCell>
                <mxCell id="62" value="user(references型, NOT NULL, 外部キー)" style="text;strokeColor=none;fillColor=none;spacingLeft=4;spacingRight=4;overflow=hidden;rotatable=0;points=[[0,0.5],[1,0.5]];portConstraint=eastwest;fontSize=12;" parent="53" vertex="1">
                    <mxGeometry y="26" width="260" height="30" as="geometry"/>
                </mxCell>
                <mxCell id="61" value="item(references型, NOT NULL, 外部キー)" style="text;strokeColor=none;fillColor=none;spacingLeft=4;spacingRight=4;overflow=hidden;rotatable=0;points=[[0,0.5],[1,0.5]];portConstraint=eastwest;fontSize=12;" parent="53" vertex="1">
                    <mxGeometry y="56" width="260" height="30" as="geometry"/>
                </mxCell>
                <mxCell id="71" value="addressesテーブル" style="swimlane;fontStyle=0;childLayout=stackLayout;horizontal=1;startSize=26;horizontalStack=0;resizeParent=1;resizeParentMax=0;resizeLast=0;collapsible=1;marginBottom=0;align=center;fontSize=14;" parent="1" vertex="1">
                    <mxGeometry x="600" y="480" width="280" height="236" as="geometry"/>
                </mxCell>
                <mxCell id="72" value="post_code(integer型, NOT NULL)" style="text;strokeColor=none;fillColor=none;spacingLeft=4;spacingRight=4;overflow=hidden;rotatable=0;points=[[0,0.5],[1,0.5]];portConstraint=eastwest;fontSize=12;" parent="71" vertex="1">
                    <mxGeometry y="26" width="280" height="30" as="geometry"/>
                </mxCell>
                <mxCell id="73" value="prefecture(string型, NOT NULL)" style="text;strokeColor=none;fillColor=none;spacingLeft=4;spacingRight=4;overflow=hidden;rotatable=0;points=[[0,0.5],[1,0.5]];portConstraint=eastwest;fontSize=12;" parent="71" vertex="1">
                    <mxGeometry y="56" width="280" height="30" as="geometry"/>
                </mxCell>
                <mxCell id="92" value="municipalities(string型, NOT NULL)" style="text;strokeColor=none;fillColor=none;spacingLeft=4;spacingRight=4;overflow=hidden;rotatable=0;points=[[0,0.5],[1,0.5]];portConstraint=eastwest;fontSize=12;" parent="71" vertex="1">
                    <mxGeometry y="86" width="280" height="30" as="geometry"/>
                </mxCell>
                <mxCell id="93" value="house_number(string型, NOT NULL)" style="text;strokeColor=none;fillColor=none;spacingLeft=4;spacingRight=4;overflow=hidden;rotatable=0;points=[[0,0.5],[1,0.5]];portConstraint=eastwest;fontSize=12;" parent="71" vertex="1">
                    <mxGeometry y="116" width="280" height="30" as="geometry"/>
                </mxCell>
                <mxCell id="94" value="house_name(string型)" style="text;strokeColor=none;fillColor=none;spacingLeft=4;spacingRight=4;overflow=hidden;rotatable=0;points=[[0,0.5],[1,0.5]];portConstraint=eastwest;fontSize=12;" parent="71" vertex="1">
                    <mxGeometry y="146" width="280" height="30" as="geometry"/>
                </mxCell>
                <mxCell id="74" value="phone_number(integer型, NOT NULL)" style="text;strokeColor=none;fillColor=none;spacingLeft=4;spacingRight=4;overflow=hidden;rotatable=0;points=[[0,0.5],[1,0.5]];portConstraint=eastwest;fontSize=12;" parent="71" vertex="1">
                    <mxGeometry y="176" width="280" height="30" as="geometry"/>
                </mxCell>
                <mxCell id="95" value="purchase(references型, NOT NULL, 外部キー)" style="text;strokeColor=none;fillColor=none;spacingLeft=4;spacingRight=4;overflow=hidden;rotatable=0;points=[[0,0.5],[1,0.5]];portConstraint=eastwest;fontSize=12;" parent="71" vertex="1">
                    <mxGeometry y="206" width="280" height="30" as="geometry"/>
                </mxCell>
                <mxCell id="84" style="edgeStyle=elbowEdgeStyle;html=1;exitX=1;exitY=0.5;exitDx=0;exitDy=0;entryX=0;entryY=0.5;entryDx=0;entryDy=0;startArrow=ERone;startFill=0;endArrow=ERone;endFill=0;" parent="1" source="61" target="73" edge="1">
                    <mxGeometry relative="1" as="geometry"/>
                </mxCell>
                <mxCell id="87" style="edgeStyle=elbowEdgeStyle;html=1;exitX=0;exitY=0.5;exitDx=0;exitDy=0;startArrow=ERone;startFill=0;endArrow=ERone;endFill=0;entryX=1;entryY=0.5;entryDx=0;entryDy=0;" parent="1" source="50" target="62" edge="1">
                    <mxGeometry relative="1" as="geometry">
                        <mxPoint x="440" y="460" as="targetPoint"/>
                        <Array as="points">
                            <mxPoint x="560" y="380"/>
                        </Array>
                    </mxGeometry>
                </mxCell>
                <mxCell id="88" style="edgeStyle=elbowEdgeStyle;html=1;startArrow=ERone;startFill=0;endArrow=ERoneToMany;endFill=0;entryX=0;entryY=0.5;entryDx=0;entryDy=0;exitX=0.308;exitY=1;exitDx=0;exitDy=0;exitPerimeter=0;" parent="1" source="34" target="62" edge="1">
                    <mxGeometry relative="1" as="geometry">
                        <mxPoint x="20" y="490" as="targetPoint"/>
                        <mxPoint x="160" y="330" as="sourcePoint"/>
                        <Array as="points">
                            <mxPoint x="160" y="460"/>
                            <mxPoint x="40" y="410"/>
                        </Array>
                    </mxGeometry>
                </mxCell>
                <mxCell id="96" style="edgeStyle=none;html=1;exitX=1;exitY=0.5;exitDx=0;exitDy=0;entryX=0;entryY=0.5;entryDx=0;entryDy=0;startArrow=ERone;startFill=0;endArrow=ERoneToMany;endFill=0;" edge="1" parent="1" source="38" target="47">
                    <mxGeometry relative="1" as="geometry"/>
                </mxCell>
            </root>
        </mxGraphModel>
    </diagram>
</mxfile>